<svg xmlns="http://www.w3.org/2000/svg" width="1280" height="720" viewBox="0 0 1280 720" role="img" aria-labelledby="title desc">
  <title id="title">Garden Inn</title>
  <desc id="desc">Illustration generee pour la vignette du projet Garden Inn.</desc>
  <defs>
    <linearGradient id="bg" x1="0" y1="0" x2="1" y2="1">
      <stop offset="0" stop-color="#fafafa"/>
      <stop offset="0.52" stop-color="#eef6ff"/>
      <stop offset="1" stop-color="#f8fbf7"/>
    </linearGradient>
    <radialGradient id="glow" cx="55%" cy="42%" r="58%">
      <stop offset="0" stop-color="#16a34a" stop-opacity="0.2"/>
      <stop offset="0.48" stop-color="#f97316" stop-opacity="0.1"/>
      <stop offset="1" stop-color="#ffffff" stop-opacity="0"/>
    </radialGradient>
    <filter id="softShadow" x="-20%" y="-20%" width="140%" height="140%">
      <feDropShadow dx="0" dy="18" stdDeviation="24" flood-color="#0f172a" flood-opacity="0.16"/>
    </filter>
    <filter id="cardShadow" x="-20%" y="-20%" width="140%" height="140%">
      <feDropShadow dx="0" dy="10" stdDeviation="14" flood-color="#0f172a" flood-opacity="0.12"/>
    </filter>
  </defs>
  <rect width="1280" height="720" fill="url(#bg)"/>
  <rect width="1280" height="720" fill="url(#glow)"/>
  <path d="M90 572 C270 510 370 642 548 578 C704 522 800 392 976 454 C1080 490 1154 552 1220 520" fill="none" stroke="#d7e3ee" stroke-width="3" stroke-linecap="round"/>
  <path d="M96 152 C234 96 340 148 464 124 C612 96 724 40 888 92 C1018 134 1082 120 1192 84" fill="none" stroke="#e2e8f0" stroke-width="2" stroke-linecap="round"/>
  
  <g filter="url(#softShadow)">
    <path d="M388 342 L640 160 L892 342 Z" fill="#f97316" opacity="0.92"/>
    <rect x="438" y="330" width="404" height="172" rx="26" fill="#ffffff" stroke="#dbeafe"/>
    <rect x="524" y="384" width="80" height="118" rx="12" fill="#16a34a" opacity="0.76"/>
    <rect x="660" y="374" width="108" height="76" rx="14" fill="#dbeafe"/>
    <path d="M370 502 C470 438 518 494 606 452 C710 402 756 502 916 440" fill="none" stroke="#16a34a" stroke-width="16" stroke-linecap="round"/>
  </g>
  <g opacity="0.92">
    <circle cx="1036" cy="166" r="8" fill="#16a34a"/>
    <circle cx="1088" cy="226" r="5" fill="#f97316"/>
    <circle cx="980" cy="530" r="6" fill="#f97316"/>
  </g>
  <g filter="url(#cardShadow)">
    <rect x="70" y="550" width="520" height="102" rx="22" fill="#ffffff" fill-opacity="0.9" stroke="#e2e8f0"/>
    <rect x="96" y="580" width="12" height="42" rx="6" fill="#16a34a"/>
    <text x="126" y="594" font-family="Arial, Helvetica, sans-serif" font-size="18" font-weight="700" fill="#64748b" letter-spacing="2">DESIGN</text>
    <text x="126" y="628" font-family="Arial, Helvetica, sans-serif" font-size="36" font-weight="800" fill="#0f172a">Garden Inn</text>
  </g>
  <g transform="translate(1134 574)">
    <circle cx="0" cy="0" r="34" fill="#ffffff" fill-opacity="0.92" stroke="#dbe5ef"/>
    <circle cx="0" cy="0" r="18" fill="#f97316"/>
    <path d="M-8 0 l5 6 l12 -14" fill="none" stroke="#ffffff" stroke-width="4" stroke-linecap="round" stroke-linejoin="round"/>
  </g>
</svg>
